<svg version="1" xmlns="http://www.w3.org/2000/svg" width="1270.667" height="1270.667" viewBox="0 0 953.000000 953.000000"><path d="M451.5 1.1c-72 2.9-148.3 25.2-212 62.1-97.9 56.7-172.7 145.8-211 251.2-37.4 103.4-37.4 220.8 0 324.2C75.5 768.1 176.9 871.7 305 921c91 35 190.4 41.3 285.6 18 115.7-28.3 216.8-99.6 282.7-199.2 19.7-30 32.6-54.4 45.5-86.3 42.1-104.7 45.1-224.9 8.3-331.7-13.4-38.8-29.8-72.1-52.7-106.8-49.5-75.4-117.6-133.8-199.9-171.7-43.3-20-89.7-33.1-140.6-39.8-9.7-1.3-55.1-3.7-61.4-3.3-1.1.1-10.5.5-21 .9zM486 32.4c0 .7-.7 1.9-1.5 2.6-1.6 1.3-2 .3-.9-2.4.8-2 2.4-2.1 2.4-.2zm8.1 1.9c-1.1 2.9-3.1 4.5-3.1 2.5 0-1.6 3-6.1 3.6-5.5.3.2 0 1.6-.5 3zm52.5 4.4c-1 1-1.9-.5-1-1.8.6-1.1.8-1.1 1.2 0 .2.7.1 1.5-.2 1.8zm13.4 2.2c0 1.2-2 2.5-2.7 1.8-.7-.7.6-2.7 1.8-2.7.5 0 .9.4.9.9zm4.7 2.4c-.6 2-2.7 1.9-2.7-.2 0-1.4.5-1.9 1.5-1.4.9.3 1.4 1 1.2 1.6zm-121 42.8c.7.7 5.5 1.1 13 1 9-.1 12.7.2 14.9 1.4 1.6.8 3.9 1.5 5.2 1.5 3.2 0 7.2 2.9 7.2 5.1 0 2.4.8 2.4 3.6-.2l2.3-2.1 2 3.3c1.2 1.9 2.1 3.8 2.1 4.3s1 .1 2.1-1c2.1-1.9 2.2-1.9 3.8.6.9 1.3 2.6 3.6 3.8 5 2 2.4 2.3 2.4 3.9.8 1.3-1.3 1.5-2 .6-3.1-1.5-1.7-.3-3.1 1.3-1.7.9.8 1.4.6 1.9-.6 1.7-4.3 5.6 4.8 4.1 9.6-.5 1.7-1 1.9-2.1.9-1-.8-1.4-.8-1.4 0 0 .6-.7 1.1-1.6 1.1-1.2 0-1.5.6-1.1 2.1.3 1.1.2 1.9-.1 1.7-3.8-2.1-8.5-3.8-9-3.3-1.3 1.2 13.9 14.5 16.6 14.5.4 0 2.4 1.1 4.3 2.4 5.1 3.5 12.7 7.6 13.6 7.5 3.8-.6 9.6.5 12.4 2.4 1.9 1.2 5.2 2.8 7.5 3.5 5.3 1.6 11.2 6.1 12 9.2.4 1.4.9 2.9 1.3 3.5.3.5.6 1.4.6 2 .1 1.7 5.7 12.4 7.4 14 3 2.9 7.6 6.5 8.3 6.5 1.3 0 10.1 6.4 13.1 9.4 3.1 3.3 4.7 6.5 4.7 9.7 0 1.1 1.7 3.7 3.8 5.8 2 2.1 5.3 5.9 7.2 8.4 1.9 2.5 4.6 5 6 5.6 1.4.5 7.5.9 13.5.7 8.9-.2 11.9-.7 15.8-2.5 2.7-1.2 5.5-2 6.4-1.7 1.2.5 1.4.1 1-1.6-.9-3.4.5-4.9 5.2-5.5 2.2-.3 4.1-1 4.1-1.5 0-.6.6-.8 1.4-.5.7.3 3.5-.5 6.2-1.8 3.3-1.6 5.3-2 6.1-1.4.8.7 1.7.3 2.8-1.5 2.1-3.2 5.3-3.4 6.4-.5.7 2 1 1.8 3.5-2.5 1.5-2.5 3.3-4.6 4.1-4.6.7 0 2.8 1.3 4.6 2.9 3.4 3.2 9.9 6.6 13.9 7.5 1.4.3 5.4 1.2 9 2.1 3.6.9 9 1.8 12 1.9 3 .1 6.2.5 7 .9.8.3 3.5.8 5.9.9 3.8.3 4.6.7 5.2 2.8.3 1.4 1.2 4.5 1.9 7 .8 2.5 3.2 8.5 5.5 13.5 4.5 9.6 6.4 14.9 9 25.7 2.3 9.3 2.4 47.9.1 58.6-.9 4-1.6 8.7-1.6 10.4 0 1.6-.6 4.4-1.4 6.1-.7 1.8-2.1 5.4-3.1 8.2-1 2.7-3 7.2-4.5 10-2.8 5.1-4.4 10-5.5 16.7-.3 2.1-2.2 5.9-4.3 8.5-3 4-3.8 6-4.5 11.8-.5 3.8-.9 8.6-.8 10.5.5 30.6.4 32.1-2.9 42-1.8 5.2-4.5 12-6 15-3.1 5.9-5.2 12.8-4.4 14.1.8 1.4-2.3 6.4-6.5 10.2-3 2.7-5.1 3.7-8.8 4.2-2.6.3-6.2.8-7.9 1.1-3.8.5-6.8-2.4-8.3-8.2-1.3-4.8-10.2-13.9-17-17.4-4.2-2.1-4.3-2.3-3.7-5.8 1-6.2-6.8-19.2-11.5-19.2-1 0-3.7-2.2-6.1-5-2.3-2.7-4.8-5-5.5-5-.6 0-1.5-.9-1.8-2-.3-1.1-1.2-2-1.9-2-1.2 0-2.3-1.9-4-7.3-.3-.9-1.4-2.1-2.3-2.4-2.1-.8-5.2-4.3-5.3-5.9 0-.7-.7-1.4-1.5-1.8-.8-.3-1.5-1.6-1.5-3 0-3.5-1-5.6-2.6-5.6-.8 0-2.5-.9-3.6-2-1.3-1.2-2.9-1.8-4-1.4-2.8.9-2.1-1 .9-2.4 3.6-1.6 5-1.5 5.7.3.4 1.1 1.3 1.4 3.2.9 1.7-.4 2.9-.2 3.4.6s3.5 1.3 8.2 1.5c5.1.1 8.2.7 9.9 1.8 1.3 1 4 1.7 6.1 1.7 2.9 0 4.7.8 7.5 3.3 2.1 1.8 5.3 3.9 7.1 4.6 2.1.9 3.4 2.2 3.9 4 .5 2.2 6.8 9.1 8.3 9.1.3 0 1-1.2 1.6-2.8 1.6-4.3-1.2-11-6.3-14.7-2.2-1.6-4.8-4.2-5.7-5.8-1-1.5-2.4-2.7-3.2-2.7-.8 0-2-1.4-2.5-3-.6-1.7-1.5-3-1.9-3-.5 0-2.9-2.1-5.5-4.6-6.3-6-16-12.8-21-14.5-2.2-.7-4.5-1.7-5.1-2.1-.7-.5-4-1.5-7.5-2.3-3.5-.7-8.8-2.1-11.8-2.9-5.8-1.6-7.5-1.2-11.8 2.7-2.2 1.9-2.3 1.9-2.3.2 0-1-.3-1.5-.7-1.2-.3.4-1.3.2-2-.5-1.1-.9-1.6-.9-2.3.1-.4.8-1.3 1-1.9.7-1.2-.8-4 1.6-5.6 4.7-.5 1.1-1.7 2.3-2.5 2.5-1.3.5-1.3.3-.1-1.1.7-1 1-2.4.6-3.4-.6-1.6-.8-1.6-2.6.6-1.1 1.3-2.3 2.1-2.6 1.7-.4-.4-1.5 1.7-2.4 4.6-.9 2.9-2.2 5.3-2.8 5.3-.7 0-1.9.9-2.7 1.9-1.3 1.9-1.4 1.9-1.4-.8 0-1.5.5-3.6 1.1-4.8.6-1.1.8-2.2.5-2.6-.9-.8-3.5 3-3.6 5.1 0 1-.6 2-1.4 2.3-.8.3-2.2 2.2-3.1 4.1-1.4 3-1.5 3.7-.4 4.5 1 .7.9.8-.5.4-1.1-.4-2.2-.3-2.5.2-.3.4-2.6 1.9-5.1 3.4-3.5 2-5.1 2.3-7.4 1.7-1.7-.5-3.1-.7-3.3-.5-.2.2.4 1.7 1.4 3.4 1.4 2.5 1.5 3.4.6 4.3-1 1-1.6.9-3.1-.4-2.2-2.1-7.1-2.2-9.7-.3-1.3.9-3.7 1.2-8.3.8-6.1-.5-6.5-.4-8.9 2.4-1.4 1.6-3.2 3.9-4 5.2-1 1.4-3 2.4-5.3 2.8-2.6.4-4.2 1.4-5.1 3-1.4 2.7-3.1 3.1-4.9.9-1-1.2-1.5-1.2-3-.2-2.5 1.7-15.1 1.2-18.7-.7-1.5-.8-5.7-4.5-9.2-8.1-7.1-7.5-12.2-11-27.7-19.1-10.2-5.3-11-6-13.4-10.8-3.4-6.7-10.6-18.3-13.8-22.1-1.9-2.3-4.3-3.5-10.6-5.2-4.5-1.2-9.2-2.2-10.5-2.3-1.3 0-5.4-.8-9.2-1.7-5-1.2-7.3-1.3-8-.6-.8.8-.4 1.3 1.2 1.8 1.3.3 5.2 1.8 8.7 3.2 5.6 2.4 6.3 2.9 6 5.2-.2 1.9-.8 2.5-2.3 2.3-3.2-.4-11.9-1.3-13-1.4-.5 0-4.2.5-8.2 1.2-6.2 1-8.1.9-13.5-.6-3.5-.9-7.2-2.2-8.3-2.9-5.6-3.3-20.8-6.5-31.3-6.5-5.5 0-6.4.3-10.8 4-3.7 3.1-5.7 4-8.6 4-3 0-4.2.7-6.7 3.7-3.5 4.2-3.8 3.6-1.6-2.7.8-2.3 1.5-4.3 1.5-4.4 0-.2-2.6-2-5.7-4.1-5.9-3.9-13-11.1-12-12.1.9-.9 3.6.9 12.1 8 4.4 3.6 8.3 6.6 8.8 6.6 1.6 0 .8-3.6-1.5-6-16.4-18-23.8-30-24.1-39 0-2.6-.4-4.6-.8-4.4-.8.5-4.8-5.9-4.8-7.7 0-1.6 4.6-6.9 6-6.9.5 0 1 3.3 1.2 7.2l.3 7.3 2.4-3.9c1.4-2.2 2.4-5.2 2.3-6.7-.1-1.5.4-3.4 1.2-4.2.8-.8 1.8-2.6 2.2-4.1.8-3.3-1.8-4.6-4.5-2.2-1.6 1.5-2 1.5-4.9 0-3.6-1.7-4-3-1.4-3.8.9-.3 2.3-1.6 3.1-2.8 1.2-1.9 1.1-2.4-.7-3.8l-2.1-1.7 2.1-3.4c2.6-4.5 6-7.7 7.6-7.1.7.2 1.2-.6 1.2-2.1 0-3.1 2.8-5.7 3.9-3.8.6.9 1.4.5 3-1.5 2.2-2.8 2.8-5.4 1.1-5.4-.5 0-1-.7-1-1.5s-.3-1.5-.8-1.5c-.4 0-.8-1.8-.8-4-.1-2.6-.8-4.6-1.9-5.4-1.6-1.1-1.6-1.6-.2-5.7.8-2.4 2-7.1 2.7-10.4.7-3.3 2.1-6.8 3.1-7.8 1.2-1.1 1.9-3.1 1.9-5.7 0-2.1.5-4.2 1-4.5.6-.3 1 .3 1 1.3 0 2.8 2.5 3.4 4.5 1.2 1.2-1.4 1.6-2.9 1.2-5-.5-2.3-.2-3.2 1.2-4 1-.5 2.4-2.3 2.9-3.9.6-1.6 1.9-3.4 2.9-4 1.1-.5 2.5-2.9 3.2-5.3.7-2.4 3.5-7.5 6.1-11.5 2.6-3.9 5-7.7 5.2-8.5.4-1.1.8-1.1 2.1.1 1.8 1.5 2.3 6.1.7 6.1-.5 0-1 .6-1 1.4 0 .7-.7 1.9-1.5 2.6-1 .8-1.2 1.7-.6 2.8.9 1.6-.5 7.2-1.8 7.2-.4 0-.7.9-.7 2 0 3.5 2.4 2.2 4.5-2.5 2.3-5.2 5.7-6.4 4.9-1.8-.3 1.6-.9 3.7-1.4 4.8-.7 1.8-.7 1.9.8.4.9-.9 2-3.4 2.4-5.5.8-4.6 9.5-22.7 12.8-26.8 1.3-1.5 2.2-3.6 2-4.5-.5-2 9.6-13.1 12-13.1.9 0 1.6-.4 1.6-1 0-.5 3-2.5 6.8-4.3 6-3 10.4-5.9 19.2-12.8 1.3-1 2.9-1.9 3.6-1.9 1.5 0 7.2-2.9 7.9-4 .3-.5 2.9-2.2 5.8-3.8 3.8-2.2 7-3.1 11.7-3.4 4.3-.4 8.3-1.4 11.7-3.2 2.9-1.4 6.1-2.6 7.2-2.6 1.1 0 3.2-1.1 4.7-2.5 3-2.8 3.5-3 5.1-1.4zm216 9.1c-.3.8-.6.5-.6-.6-.1-1.1.2-1.7.5-1.3.3.3.4 1.2.1 1.9zm-132.7 17c0 1-.4 1.8-.9 1.8-1.6 0-2.3-1.9-1.6-4.1.6-1.7.9-1.9 1.6-.8.5.8.9 2.2.9 3.1zm66.8 61.8c-1.2 1.6-2.6 3-3.1 3-.4 0 .1-1.4 1.3-3 1.2-1.7 2.6-3 3.1-3s0 1.3-1.3 3zm39.5 23.6c-1.5 2.3-1.9 2.5-2.1 1-.4-1.9 3-6.4 3.6-4.7.2.5-.5 2.2-1.5 3.7zm39.1.9c-.4.8-1.3 1.5-2.1 1.5-1.3 0-1.3-.3-.3-1.5.7-.8 1.6-1.5 2.1-1.5s.6.7.3 1.5zm-423.2 93.7c.9.7 3.1 3.7 4.8 6.7 3.4 5.9 5.4 16.7 5.4 29.3 0 3.7.3 6.5.8 6.2 1.1-.7 3.7 1.4 5.8 4.8.9 1.4 3.8 5 6.4 7.8l4.9 5.2 2.4-2.9 2.4-2.8-.5 5-.5 5.1 6.7 7.4 6.7 7.4-.5 11c-1 23.7-.6 34.8 1.4 39 6.5 13.2 50.5 33 102.4 46.1 14.4 3.6 29.6 5.6 39.4 5.1 7.8-.4 8.5-.6 11.6-3.7 1.7-1.7 3.2-3.8 3.2-4.6 0-.8.5-1.1 1-.8.6.3 1-.2 1-1.2 0-2.6 4-8.9 4.8-7.6 1.6 2.5 5.8-3.1 8.9-11.7 2.2-6.4 5.8-11 8.5-11 1.5 0 1.3.7-1.5 4.7-1.7 2.7-3.6 5.1-4 5.4-.5.3-.5 1.7-.2 3.1.4 1.5.2 2.9-.4 3.2-1.6 1-1.3 2.6.4 2.6.9 0 3-.8 4.8-1.7 4.9-2.5 13.6-4.3 16.2-3.3 1.6.6 3 2.7 4.4 6.4 1.1 3.1 3.4 8.1 5 11.2 3.6 6.7 5.2 14.8 6.7 34.4.8 9.8 1.5 14 2.5 14 1.9 0 2.1-5.8.6-18.3-.9-7.3-1.9-16.1-2.1-19.7-.3-3.6-1.8-11.5-3.3-17.6-1.4-6.1-2.3-11.8-2-12.8 1-2.6 5.6-3.9 8.9-2.5 1.5.6 2.9 1.9 3.2 2.8.2.9.5 7.4.5 14.6.1 29.5 1.4 35.3 10.3 44.9l6 6.6-.3 7.3c-.2 3.9.1 9.7.6 12.7.9 6.1 1.1 7.3 1.3 11.2.2 2 1.6 3.9 5.4 6.9 2.9 2.3 5.8 5.5 6.5 7.1.7 1.6 1.9 3.6 2.8 4.4.8.9 1.5 2.2 1.5 3 0 1.4.4 2.5 2.9 7.2.6 1.2 1.4 4.2 1.8 6.7.3 2.4 1.4 5.2 2.4 6.1 1.9 1.7 2.5 5.4 1.2 6.7-.7.8-5.4-2.6-10.7-7.6-3.1-3-11.6-15-11.6-16.5 0-.4-1-1.9-2.3-3.4-1.2-1.5-3.4-4.2-4.9-6.1-3.1-3.9-8.5-5.9-9.9-3.6-.5.8-.6 3.4-.3 5.9.3 2.5.8 6.6 1.1 9.3.8 6.9-1.7 12.6-8.1 18.4-6.1 5.5-12.7 9.4-13.3 7.7-.2-.6-1-2-1.7-3-1.3-1.7-2-1.7-8.9-.8-7.4 1.1-9 1.7-17.7 6.6-7.3 4.1-8.7 4.3-9.4 1.2-.7-2.5-.9-2.6-5.2-2-2.5.3-5.1.9-5.7 1.3-.7.4-2.1.9-3.1 1-1.1.2-2.2.6-2.5.8-.8.9 4.2 5.5 5.9 5.5.9 0 2.2 1.1 2.8 2.5 1.4 3 1.6 10.8.3 8.6-1.1-1.7-1.5-1-3.5 6-1.7 6-6.3 13.1-9.6 14.9-1.7.9-2.2.7-3.2-1.5-1.1-2.6-3.2-3.3-4.3-1.5-.9 1.4-5.5 1.2-5.6-.3-.1-.6 0-2 .1-3.1.1-1.4-.7-.9-3.2 1.8-1.8 2-3.8 3.6-4.5 3.6-2.3 0-2.8 7.1-.7 10.9 1.6 3.1 2.5 3.7 6.5 4.2 9.7 1.4 14.1 5.7 14.1 13.8 0 6.7-3.5 13-8.4 15.4-2.4 1.2-3.8 2.6-3.8 3.8 0 1 .5 1.9 1 1.9.6 0 1 1.1 1 2.5 0 1.6-.6 2.5-1.5 2.5-1.1 0-1.5 1.2-1.5 4.4 0 2.5-.6 5.1-1.2 5.8-1.2 1.3-3.4 4.9-6.5 11-1.8 3.6-11.8 9.8-15.7 9.8-2.7 0-10.6-7.2-10.6-9.6 0-2.4 2.2-8.7 3.6-10.5.6-.8 2-4 3.2-7.2 1.2-3.2 3.3-7.2 4.6-9 1.3-1.8 2.8-4.5 3.2-6 .3-1.6 1.3-3.1 2-3.4.8-.3 1.4-1.6 1.4-2.9 0-2.1-.3-2.3-1.8-1.3-1.4.9-2.9.7-6.5-.5-6.6-2.2-10-2-12.4.6-2.7 3.1-6.3 9.3-6.3 10.9 0 3.4-5.3 14.9-8 17.3-1.7 1.4-3 3-3 3.5s-1.4 1.1-3.1 1.5c-4.7.9-9.2-1.7-12.2-7.2-4.5-8.3-5.8-14.7-5.3-26.2.4-11.1 2.2-17.8 6.2-24 2.3-3.5 2.3-3.5.6-10.5-.9-3.9-2.2-7.7-2.7-8.5-.5-.8-1.2-4-1.5-7-.5-5.4-.6-5.5-4-6-3.3-.5-3.5-.8-4.1-4.7-.3-2.4-.7-4.4-1-4.7-2.8-2.6-11.9-7.1-18.5-9.1-6.1-1.9-8.4-3.1-8.9-4.5-.8-2.6.4-14.9 1.7-17.3 1.3-2.6.2-3.4-2-1.4s-3.2 2.1-3.2.4c0-2.6 9.5-9.7 13-9.7 1.1 0 2-.4 2-.9s1.4-1.2 3-1.6c1.7-.4 3-1 3-1.5s1.5-1.3 3.4-2c1.8-.6 4.4-2.2 5.7-3.6 1.3-1.5 4-3.7 5.9-5 3.8-2.5 8.6-6.5 13.8-11.7 1.8-1.7 5.4-3.9 8-4.8 5.1-1.7 6.2-3.7 4.2-7.4-1-1.8-.8-3 .8-6.6 1.8-3.7 1.8-4.4.6-4.7-.9-.2-3.3.8-5.4 2.2-2.1 1.4-5.1 2.8-6.7 3.2-1.5.4-5.5 1.9-8.8 3.4-3.3 1.5-9.8 4.3-14.5 6.4-4.7 2-12.1 6-16.5 8.8-4.4 2.8-9.7 6.1-11.8 7.2-6.8 3.8-16.4 12-19.3 16.6-4 6.4-6.1 11.3-5.6 12.8.2.7-.2 2.1-1 3-2 2.3-4.8 10.2-4.8 13.4 0 5-5.4 19.7-8.9 24-.7 1-2 5.9-2.7 10.9-.8 5.1-2 9.9-2.8 10.8-.9 1.1-1.3 4.3-1.3 10.1 0 8-.3 9.2-4.1 17.2-3.1 6.5-4.6 8.7-6.5 9.2-3 .7-7.6-1.5-13.4-6.3-3.5-2.9-4.3-4.2-4.8-8-.3-2.5-1.1-5.4-1.6-6.4-.6-1.1-.8-2.1-.6-2.3.9-.9 3.7.9 3.7 2.3 0 1.1.7 1.3 2.5.9 2.1-.5 2.5-.3 2.5 1.5 0 1.1-1 2.9-2.2 3.9-2.3 1.9-2 3.9.3 2.4.8-.4 3.3-.9 5.7-1 2.3-.1 4.4-.3 4.6-.5.2-.2.5-3.1.7-6.4.4-5.3.2-6-1.6-6.3-4.4-.7-4.8-1.1-3.4-2.9.8-.9 2.8-2.2 4.5-2.9 4.2-1.7 5.3-6.7 2.5-10.5-1.8-2.4-1.8-2.9-.5-5.4.9-1.7 1.2-4.1.8-6.6-.6-3.5-.4-4 1.8-4.8 3.2-1.2 3.9-4 2.4-8.6l-1.3-3.6-1.6 2.3c-1.4 2-1.8 2.1-2.6.8-.6-.8-1.1-2.6-1.1-3.9 0-3.4-3-5.4-5.1-3.5-2 1.8-6.9.9-6.9-1.2 0-1.5 3.4-3.6 4.4-2.7.4.4 1.3-.3 2.2-1.5.8-1.2 2.3-2.2 3.3-2.2 1.7 0 5.1-3.8 5.1-5.8 0-.5-1.5-2.5-3.3-4.5-3.1-3.6-5.7-4.8-5.7-2.7 0 .5-1.1 1.2-2.4 1.6-1.3.3-2.8 1.6-3.5 3-.6 1.3-1.5 2.4-2.1 2.4-.5 0-1 1.8-1 3.9 0 2.3-.7 4.6-1.6 5.6-1.2 1.1-1.5 2.6-1.1 5.1.5 3 .4 3.2-.9 2-.8-.8-1.4-2.7-1.4-4.1 0-2.2-.3-2.6-1.7-2-3.2 1.2-3.7 1-4.1-1.1-.2-1.4.6-2.7 2.2-3.8 2.9-1.9 3.3-4.2 1.1-7.3-1.2-1.7-1.3-2.7-.4-5 2.3-5.7 3-11 2.9-21.5-.1-7.9.2-11.4 1.4-13.7 2-3.8 2-4.7 0-5.5-1.9-.7-6.1 1.6-8.6 4.8-2.6 3.2-4.2.9-3.4-4.8.7-4.5 3.4-7.5 5.5-6.2 1 .7 2-7.1 1-8.2-.3-.4-.9-1.8-1.2-3.2-.5-2 0-2.9 2.3-4.5 3.7-2.5 3.9-4.4.5-3.7-3.1.5-4.4-2.1-2.5-5.2.7-1.1 1.4-3.6 1.6-5.4.2-3 0-3.3-1.8-2.9-1.4.4-1.8.2-1.4-.8.3-.8 1-3.3 1.6-5.7.7-2.4 1.8-5 2.5-5.8 1.3-1.5 1.9-6.2 1.6-13.8-.1-4.5-1.3-5.2-4.2-2.6-2.6 2.3-4.9 1.1-4.9-2.6 0-2.9-.2-3.1-3.2-2.5-4 .7-7-1.2-12.2-7.4-7.5-9-9.7-17.3-7.2-27.2.9-3.3 1.6-8.5 1.6-11.4 0-2.9.7-8.8 1.5-13.1.8-4.4 2.1-15.8 2.9-25.4 1.3-15.8 1.8-18.6 5.4-29 2.2-6.3 4.9-15.6 6.1-20.5 3.1-13.4 13.3-32.3 19.6-36.5 3.4-2.3 8.4-2.6 10.7-.8zm527 14.6c-.4 4-.5 4.2-1.8 2.3-.8-1-1.2-2.6-.9-3.5.3-.9.7-2.4 1-3.3 1-3 2.2.1 1.7 4.5zm16.4 13.7c2.2 3.4 3.1 17 1.4 22.1-1.6 4.8-6.2 9.6-8.4 8.8-1.8-.7-2.1-3.4-1.6-16.4.2-7.2.6-9.2 2.9-12.7 1.4-2.3 2.9-4.2 3.3-4.3.4 0 1.5 1.1 2.4 2.5zm-461 28.5c7.6 1.7 37.5 10.6 50.9 15.2 12.1 4.1 26.3 10.3 21.3 9.2-3.8-.8-12.3 2.2-15.7 5.6-2.7 2.8-4.3 7.8-4.4 14.2 0 1.6 1.3 4.3 2.9 6.3 5.4 6.8 7.4 9.7 6.8 10.6-.3.5-2.3 1.2-4.5 1.5-4.3.7-5 2.5-2.4 6 1.6 2.1 2 7.4.6 7.4-.5 0-1.7 1.4-2.5 3.2-1.5 3-1.5 3.3.1 5 2.4 2.3 11.7 3.4 25.5 3 6.5-.2 6.9-.4 12.8-5.3 7.7-6.4 9.9-10.5 8.1-15.4-1.6-4.4-.6-8.2 1.6-6.4 1.9 1.6 3 0 3.9-5.8.6-4.4.6-4.5-5.5-15.5-2.4-4.4-3.9-5.8-6.1-6.3-1.6-.4-3.2-1.1-3.5-1.6-.8-1.2 2.8-1.2 4 0 .6.5 2.8 1.4 5 2.1 7.6 2.4 27.6 11.9 31.8 15.2 8.3 6.4 9.9 8.8 9.5 13.8-1.3 13.7-21.2 47.6-31.9 54.3-9.8 6.2-47.8-.8-87.4-16.1-35.5-13.7-49.7-21.9-54-30.8-3.3-7.1-1.3-30.3 3.4-39.5 1-1.9 3.8-9.3 6-16.5 2.3-7.1 5-13.5 5.9-14.2 1.8-1.3 9.6-1 17.8.8zm60.2 7.7c7.2 1.8 13.2 5 13.2 7.1 0 1.5-4.3 1-14-1.8-8-2.3-11.2-4.5-9-6 2-1.3 2-1.3 9.8.7zM591 370.1c-.7 1.1-1.4 1.8-1.7 1.5-.8-.8.5-3.6 1.7-3.6.7 0 .7.6 0 2.1zm-178.5 6.7c-.3.3-1.1 0-1.8-.7-.9-1-.8-1.1.6-.5 1 .3 1.5.9 1.2 1.2zm6.5 1.2c1.3.8 1.3 1-.2 1-.9 0-2-.5-2.3-1-.8-1.3.5-1.3 2.5 0zm164 5c0 .5-.5 1-1.1 1-.5 0-.7-.5-.4-1 .3-.6.8-1 1.1-1 .2 0 .4.4.4 1zm-66.9 34c.6 0 1.8-.4 2.8-1 2.5-1.3 7.4 3.6 5.1 5-2.2 1.4-5.7 1.2-9-.5-2.6-1.3-2.7-1.7-1.7-4 .8-1.7 1.3-2 1.5-1 .2.8.8 1.5 1.3 1.5zm38.9 10c2.1 1.2-5.2 2.4-9.2 1.6-2.1-.4-4.1 0-6.8 1.5-5.8 3.3-7.2 8-4.8 16.1 1.3 4.3 2.7 4.5 4.6.5 1.6-3.4 3.2-3.5 3.2-.2 0 2.5 1.9 7.4 2.9 7.6 3.9.5 6 1.3 7.9 3.2l2.3 2.3-2.7 3.9c-1.5 2.2-2.9 5.7-3.2 7.8-.5 4.3-1.7 5.4-3.7 3.7-1.1-.9-1.5-.9-1.5-.1 0 .6-.5 1-1.2.9-.6-.2-1.4.6-1.6 1.7-.2 1.1-.9 2.3-1.4 2.6-1.6 1-2.9 10-2.3 15.1.7 4.6.9 4.8 8.3 9.4 8.4 5.3 23.7 12.2 35.2 16.1 6 2 8.6 2.3 13 1.8 3-.3 6.9-.7 8.5-.8 1.7-.2 3.5-.6 4.1-1 .7-.4 3.6-.2 6.5.3 5.4 1 6.8.4 6.9-2.8 0-.7 1.2-1.9 2.8-2.5 4.9-2.3 10.2-5.9 9.7-6.7-.3-.4-3.2-.8-6.4-.7-5 0-6.6-.4-9.5-2.7-5.6-4.2-6-5.7-2.5-9.4 2.7-2.9 2.8-3.3 1.2-3.9-2.6-1-7.3-5.4-7.3-7 0-.9 1.5-1.3 4.8-1.3 13 0 21.2-7.3 21.2-18.9 0-3.3.1-3.4 1.6-1.9 2.1 2.1 2.9 10 1.6 15.6-1 4.2-.9 4.4 2.6 7.7 4.8 4.5 6.9 5.1 9.3 2.9 2.3-2.1 2.4-3.1.4-5-1.9-1.9-2.1-10.8-.2-10.2.6.3 1.3 1.4 1.5 2.6.7 4.8 5.2 1.4 7.7-5.8.9-2.5 2.3-5.5 3.1-6.8 2.1-3.1.9-4.3-6.6-6.7-3-1-6.1-2-6.7-2.3-.9-.3-1.1.4-.7 2.7.8 4.1-1.5 4.2-3.9.2-.9-1.6-4-4.6-6.8-6.6-2.7-2.1-4.8-3.9-4.7-4.1.7-.6 12.3 2.7 30.6 8.8 20.1 6.7 29.6 11.7 30.8 16.3.8 3.4-8.1 30.5-14.2 43.1-5.6 11.6-12.3 20.5-16.9 22.7-9.6 4.6-40.1-.1-73-11.3-30.8-10.4-52.7-19.9-60.7-26.2-4.7-3.7-5.5-6.5-6.3-23.8-.6-14.1.7-26.3 3.8-34.5.8-2.2 2.3-6 3.2-8.5 2-5.5 4.3-8.2 6.4-7.6.9.2 3.6.1 6.1-.4 4.7-.8 10.4-.3 13 1zm89.9 12c1.2 0 8.1 6.1 8.1 7.2 0 .4-1.1.8-2.5.8-2.9 0-11.5-7.3-11.5-9.7 0-1.3.3-1.3 2.5.1 1.3.9 2.9 1.6 3.4 1.6zm-36 9.9c.3.1-.7 1.3-2.1 2.8-4.6 5-6.2 8.1-4.9 9.7.7.9.9 2.9.5 5.5-.6 3.5-.2 4.6 2 7.5 1.4 1.9 2.6 4 2.6 4.7 0 3.3-18.9-4.5-22.3-9.2-1.7-2.4-1.7-2.9-.4-6.1.8-2 2.5-3.9 3.6-4.3 1.2-.3 2.1-1.2 2.1-2 0-2.7 5.1-7.5 8-7.5 1.6 0 3.1-.4 3.4-.9.5-.7 5.1-.8 7.5-.2zm20.1 11.5c1.4 2.6 1.4 2.8-.9 4.7-4.7 3.8-6.3 1.8-3.9-4.8 1.4-3.8 2.7-3.8 4.8.1zm21 3.7c1.3 2.4 1 6.5-.5 6.1-1.7-.5-3.8-4.9-3.2-6.6.9-2.2 2.4-2 3.7.5zm118.4 10c3.4 2.6 5.5 6.7 5.7 11 .3 5.4 0 6.4-2.6 10.3-1.3 2-3.6 7.5-5.1 12.2-1.8 5.6-5.2 12.7-9.6 20-3.7 6.3-9.6 17.6-13.1 25.2-6.2 13.5-20.5 39-23.2 41.2-.7.6-2.8 4.6-4.6 8.8-4 9.9-6 12.6-11.4 15.7-7.3 4.4-19.2 4.3-20.9 0-1-2.7 3-12.3 9.3-22.5 6.8-11 10.1-19.7 10.9-29l.4-5.5-2.6 2.4c-1.4 1.4-2.6 2.9-2.6 3.5 0 .6-1.1 2.8-2.5 4.8s-2.5 4.7-2.5 6c-.1 2.4-2.1 5.8-3.5 5.8-1.6 0-4.5 3.3-4.5 5.1 0 1-1.3 2.5-2.8 3.4-2.6 1.6-10.2 11.9-15.4 21-4.3 7.6-8.3 12.5-11.5 14-1.7.8-3.5 2.4-3.8 3.5-.4 1.1-1.4 2-2.3 2-3.3 0-16.9 12-19.8 17.2-.8 1.6-2 2.8-2.6 2.8-1.7 0-5.8 4.1-5.8 5.7 0 .7-1.1 1.8-2.5 2.3-1.4.5-2.8 1.7-3 2.5-1.6 5.1-1.4 4.9-3.5 3-1.9-1.7-2-1.7-2.9.7-1.2 3.2-3.7 5.3-4.6 3.8-.4-.6-1.8-1.6-3.2-2.1-2.4-.9-2.5-1.3-2-5.4.6-3.8.4-4.6-1.4-5.5-1.3-.8-1.8-1.7-1.4-3 .3-1 .1-2.1-.5-2.5-1.4-.9-1.3-8.8.2-10.3 1-1 1-1.5-.2-2.2-.9-.6-1.7-.5-2.2.3-.5.7-.8.2-.8-1.4 0-1.4-.9-3.4-2-4.4-1.1-1-2-1.5-2-1.1 0 .4-.4.4-1 .1-.6-.4-.4-1.7.5-3.5 1.5-2.8 1.4-3-1.3-5-2.3-1.7-2.7-2.7-2.4-5.5.2-1.9.9-3.5 1.4-3.5.6 0 .8-1.4.3-3.6-.5-2.8-.2-3.9 1.2-4.9 1.7-1.3 1.7-1.4 0-3.3-1.6-1.7-1.6-2.2-.2-4.8.8-1.6 2.3-2.9 3.2-2.9 1.1 0 1.9-.9 2.1-2.3.2-1.2-.1-2.2-.7-2.2-1.5 0-1.4-3.3.1-4.8.8-.8.8-1.5-.3-2.8-1.2-1.6-1.2-1.7.3-1.2 2.7 1.1 2.8-.2.2-5-1.8-3.3-2.3-5.4-1.8-7.5.4-2 .3-2.7-.5-2.3-.6.4-1.1.1-1.1-.7 0-.8-.7-2-1.6-2.8-1-.8-1.4-2.2-1.1-3.8.4-1.8-.3-3.5-2.4-5.9-1.6-1.8-2.8-4.3-2.8-5.5.1-1.3.3-1.6.5-.7.5 1.7 4.4 4.5 4.4 3.1 0-.5-.7-2.5-1.6-4.6-2.4-5.9-1.6-9.7 2.7-11.7 3.5-1.6 4-1.6 16 1.3 18.8 4.5 20.6 4.9 31.4 6.4 12 1.7 19.6 1.9 25 .4 5.6-1.5 14.3-10.7 23.9-25.2 4.3-6.5 8.7-12.4 9.9-13.2 3.7-2.3 19-5.5 26.7-5.5 7.1 0 7.3-.1 11.2-4 2.3-2.2 5.2-4.3 6.7-4.7 7.4-1.7 12.7-6.2 17.5-14.6 2.4-4.1 3.1-4.7 6-4.7 1.9 0 4.5.9 6 2.1zm-145-.2c.8 1.3-1.4 2.8-5.1 3.6-2.5.5-3.3.3-3.3-.8 0-.8 1.5-1.9 3.3-2.5 4.2-1.3 4.5-1.3 5.1-.3zM227 512.5c0 1.6-.6 2.5-1.5 2.5-1.6 0-1.9-.9-.9-3.4.9-2.5 2.4-1.9 2.4.9zm19.1 75.2c-.9 1.6-1 1.4-1.1-1.2 0-2.1.3-2.6 1.1-1.8s.8 1.6 0 3zm320.2 5.9c-.9 2.3-2.3 1.6-2.3-1.2 0-2.2.2-2.4 1.4-1.4.8.6 1.2 1.8.9 2.6zm-280.7 7.1c-1 1-1.9-.5-1-1.8.6-1.1.8-1.1 1.2 0 .2.7.1 1.5-.2 1.8zm201.2-1.4c.6.6 1.3 2.4 1.7 3.8 1 4.2-1.6 4.1-6.5-.1-3.7-3.3-4.1-3.9-2.4-4.3 3.6-.9 6.2-.7 7.2.6zm-9 8.4c0 3.8-.2 7.7-.5 8.7-.5 1.8-.6 1.8-1.5.2-1.7-3.1-2.7-7.5-2-9.8.5-2.1.6-2.1 1.3-.2.6 1.4.8.9.8-1.9.2-6.6 1.8-3.9 1.9 3zM244 604.2c0 1.6-.3 1.9-1.1 1.1-.6-.6-.8-1.6-.5-2.2 1.1-1.7 1.6-1.3 1.6 1.1zm221.3 5.8c.4 2 .1 4.4-.6 5.7-1 1.9-1.2 1.2-1.4-5-.3-7.3.9-7.6 2-.7zm6.5 3.4c.3 1.2-.1 1.7-1 1.4-.7-.3-1.5-1.3-1.6-2.2-.3-1.2.1-1.7 1-1.4.7.3 1.5 1.3 1.6 2.2zM574 613c0 .5-.4 1-1 1-.5 0-1-.5-1-1 0-.6.5-1 1-1 .6 0 1 .4 1 1zm-89 7.2c0 1.6-.3 1.9-1.1 1.1-.6-.6-.8-1.6-.5-2.2 1.1-1.7 1.6-1.3 1.6 1.1zm99 3.8c0 .5-.7 1-1.5 1s-1.5-.5-1.5-1c0-.6.7-1 1.5-1s1.5.4 1.5 1zm-120 7.5c-1.3 1.5-1.5 1.5-2.2-.5-.4-1.2-.5-3.3-.1-4.8l.6-2.6 1.5 3.1c1.3 2.7 1.3 3.5.2 4.8zm14.6-2c-2.1 4.9-3.1 4-1.4-1.3.7-2.3 1.6-3.8 2.1-3.3s.1 2.5-.7 4.6zm-19.9-1.3c-.3.8-.6.5-.6-.6-.1-1.1.2-1.7.5-1.3.3.3.4 1.2.1 1.9zm39.7 5.3c-.4.8-.8 1.5-1 1.5-.2 0-.4-.7-.4-1.5s.4-1.5 1-1.5c.5 0 .7.7.4 1.5zm-190.2 2.2c1 .9 1.8 2.6 1.8 3.7 0 1.2.7 4.3 1.6 7.1 3.4 10.8 4.4 14.4 6.8 25 3.2 14.6 7.2 24.8 11.9 30.1 4.3 4.9 7.2 5.6 8.3 2.1.7-2.4 3.3-5.7 4.5-5.7.4 0 2.1 1.2 3.8 2.6 2.7 2.2 3.1 3.2 3.1 7.4 0 4.5.4 5.2 5.5 10.4 3 3 5.5 6.2 5.5 7 0 1.9 1.7 3 7.8 5.2 5.5 1.9 6.8 4.6 2.6 5.2-3 .4-12.3-3.8-12.9-5.9-.4-1-2.1-2.7-4-3.9-3.5-2.2-6.8-5.9-8.8-9.9-1.4-2.9-3.7-3.9-3.7-1.7 0 4.1 9.4 14.9 16.6 19.1 2.7 1.5 6 3.8 7.4 5 1.4 1.2 4.2 2.6 6.2 2.9 3.7.7 3.7.6 4-3 .4-5 2.9-6.5 6-3.8 1.3 1.1 3.5 2.8 5 3.7 2.6 1.6 2.8 1.6 4.8-.5 1.9-2.1 2.2-2.1 8.5-.9 6.4 1.3 6.7 1.3 10.3-1.2 2-1.4 5.8-2.9 8.4-3.2 3.4-.5 5.4-1.5 7.3-3.7 2.5-2.8 3.1-3 6.9-2.3 7.2 1.3 8.9.9 17.1-4 9.6-5.7 18.4-12.6 30.4-24 8.8-8.5 8.9-8.6 12.6-19 4.9-13.7 5.3-14.2 9.2-12.2 4.5 2.4 8.3 7.3 8.3 10.9 0 6.5-5.3 14.8-16.2 25.4-10.2 9.9-20.4 18.1-21.4 17.1-1.3-1.3-9.3 1.9-19.1 7.8-5.9 3.6-11.6 6.5-12.5 6.5-1 0-3.5.9-5.6 2-2.1 1.1-6.8 2.4-10.3 2.9-3.5.5-9 1.6-12.2 2.5-6.1 1.7-9.2 2-16.8 1.6-9.6-.5-14.2 2-13.2 7.3.9 4.3-3.9 8.3-9.5 7.8-.7 0-1.7-1.2-2.2-2.6-.5-1.4-1.6-2.5-2.5-2.5-.8 0-1.5-.5-1.5-1 0-1.4-4.2-1.2-6.3.4-2 1.5-3.8 9.8-2.6 11.8 1.3 1.9 1.1 2.8-.6 2.8-.9 0-2.1 1.1-2.7 2.5-.6 1.4-1.9 2.5-2.8 2.5-1.1 0-1.9 1.4-2.6 4.7-1.1 6-.7 9.3 1.2 9.3.9 0 1.4.7 1.2 1.7-.3 1.2-1.2 1.7-2.6 1.6-1.2-.2-2.2.2-2.2.7 0 .6-.7 1-1.5 1s-1.5.5-1.5 1.1c0 2.2 2.1 4.9 3.9 4.9 1 0 3.1.6 4.5 1.4l2.6 1.3-3 3.3c-1.9 2.1-3 4.3-3 6.2 0 5-1.7 7.1-5.2 6.4-1.9-.4-3.7-.1-4.6.6-2.3 2-7.4 1.8-10.1-.3-3.2-2.6-4.1-2.4-4.1.9 0 3.5-3.3 7.1-4.6 5-1.1-1.7-1.1-4-.1-5.5.4-.6.4-1.4-.1-1.7-1.4-.8-5.2 2.3-5.2 4.3 0 2.1-1.9 4.1-4 4.1-.9 0-3.1 1.4-4.8 3.1-2.2 2.2-3.2 2.7-3.2 1.6 0-.9-.9-1.9-2-2.2-1.1-.3-2.2-1.6-2.5-2.8-.3-1.2-1.9-3-3.5-3.9-2-1.1-3-2.5-3-4 0-1.3-.6-3.2-1.4-4.3-.7-1.1-1.7-3.6-2.1-5.5-.9-4-3.9-10.4-6.6-13.9-1.1-1.3-1.9-3.3-2-4.5 0-1.8-.1-1.9-.7-.3-.6 1.5-1 1.6-2.6.4-2-1.5-2.7-8.7-1.1-12.1.7-1.6.5-1.8-.7-1.3-3 1.1-10.3-8.6-9.3-12.5.4-1.6.1-2.9-.9-3.7-2.5-2.1-2-6.2 1.1-8.7 2.6-2.1 2.6-2.2 1-4.5-3.3-4.8-4.3-5.7-6.7-6.1-2.1-.2-2.6-1-3.1-4.3-.3-2.2-1.2-5-1.9-6.2-2.2-3.5-.2-5 4.8-3.5 4.7 1.4 10.1 1.5 12.2.2 1.2-.8 1.3-1.3.3-3-1.9-3-1.6-5.4.9-6.5 2.5-1.2 4.3-8 5.3-21 .5-5 1.4-9.2 2.6-11.3 1-1.8 1.9-3.8 1.9-4.3 0-.6 1.5-3.4 3.4-6.2 5.4-8.4 10.5-18.5 12.2-24.4 1.9-6.5 5.2-14.3 6.1-14.3.4 0 1.5.7 2.5 1.7zm149.5.5c-.3.8-.6.5-.6-.6-.1-1.1.2-1.7.5-1.3.3.3.4 1.2.1 1.9zM244 641.3c0 .5-.4.5-1 .2-.5-.3-1-1.4-1-2.3 0-1.5.2-1.5 1-.2.5.8 1 1.9 1 2.3zm254.6 5.4c-.1 2-.7 3.8-1.4 4.1-1.5.5-1.6-1.7-.2-5.2 1.3-3.5 1.7-3.3 1.6 1.1zm12.7 2.5c-.3 1.8-.9 4-1.4 4.8-1.2 2.2-1.2-2.2.1-5.4 1.3-3.6 2.1-3.2 1.3.6zm81.4-1c-.3.8-.6.5-.6-.6-.1-1.1.2-1.7.5-1.3.3.3.4 1.2.1 1.9zm-92 1c-.3.8-.6.5-.6-.6-.1-1.1.2-1.7.5-1.3.3.3.4 1.2.1 1.9zM516 654c0 1.9-1.1 2.6-2.3 1.4-.8-.8.3-3.4 1.4-3.4.5 0 .9.9.9 2zm-60.6 13.2c-1.8 5.8-7.3 10-10 7.7-1.5-1.2-.6-4.9 1.1-4.9.7 0 2.3-1.1 3.6-2.5 3.1-3.2 6.3-3.4 5.3-.3zm-194.9 11.4c1 1 1.5 2.9 1.3 4.8-.4 4.5-4.4 4.4-7.2-.3-1.9-3.3-1.9-3.4-.1-4.7 2.5-1.8 4-1.8 6 .2zm377.2 7.2c.7.8 1.5 3.2 1.9 5.1.3 2 1.7 7.6 3 12.6 3.7 13.4 3.9 16.7 1.4 32.6-2.7 17.5-4 21.6-9.6 29.6-2.4 3.4-4.9 7.4-5.5 9-2.2 5.9-13.1 26.6-16.9 32.2-2.2 3.3-8.4 10.8-13.7 16.8-41.7 46.8-57.1 60.7-62.8 56.5-2.6-1.9-5.5-16.2-3.7-18.4.5-.7 1.6-4 2.3-7.3.7-3.3 1.6-6.5 2.1-7.2.5-.7 1.6-3.6 2.3-6.5 1.4-5.6 4.7-15.5 10-30.3 5.4-15.1 5.7-16.3 5-21-.6-3.5-.3-5.1 1.4-7.8 1.2-1.9 2.1-4 2.1-4.7 0-.7 1.1-2.8 2.5-4.6 1.4-1.8 2.5-4.1 2.5-5.2 0-1 .3-2.2.6-2.5 1.6-1.5 4.3-11.5 4.4-15.5 0-5.1 2.6-11.2 4.7-11.2 2.2 0 9.9-6.7 11.2-9.8.7-1.5 2.8-3.8 4.8-5.2 4-2.8 14.8-12.9 29.5-27.5 5.5-5.5 11.2-10.5 12.7-11.2 3-1.3 6.1-.8 7.8 1.5zm-110 9.4c-1.2 6.3-1.2 6.4-3.2 4.8-2.1-1.7-1.9-4.2.6-7.4 3-3.9 3.7-3.2 2.6 2.6zm5.1 8.2c-.2 4-.4 4.3-2.3 3.6-2.6-.9-3.1-4.3-1-6.4 2.6-2.6 3.5-1.9 3.3 2.8zM243 742.3c0 1.8.7 4.2 1.5 5.3.8 1 1.5 3.6 1.5 5.8 0 3.3-.2 3.7-1.5 2.6-.8-.6-1.7-2.2-2-3.3-.4-1.2-1.4-3.6-2.3-5.4-1.3-2.6-1.4-3.7-.4-5.7 1.6-3.6 3.2-3.2 3.2.7zm202.9 14.5c.7 1.4.2 2.6-2.3 5.5-1.7 2-3.7 3.7-4.4 3.7-.7 0-1.2.4-1.2 1 0 .5-.9 1-1.9 1-1 0-2.1.6-2.4 1.4-.3.8-1.9 1.7-3.6 2.1-1.7.4-3.6 1.5-4.1 2.6-1.1 2-7.4 2.7-8.5.9-.3-.5.6-3.5 2-6.6 1.8-3.9 3-5.4 4-5 2 .7 7.2-1.2 12-4.4 3.5-2.4 5.8-3.4 8.7-3.9.4 0 1.2.7 1.7 1.7zM368 774c0 .5-.4 1-1 1-.5 0-1-.5-1-1 0-.6.5-1 1-1 .6 0 1 .4 1 1zm-88 20c-1.1 2-3 2.8-3 1.2 0-1.1 2.2-3.2 3.2-3.2.5 0 .4.9-.2 2zm3 5.6c0 .8-.5 1.2-1 .9-.6-.4-.8-1.1-.5-1.6.9-1.4 1.5-1.1 1.5.7zm219.9.1c2 .5 2.2 1 1.8 4-.8 4.5-7.7 18.4-8.8 17.7-.5-.3-.9.4-.9 1.5 0 2.3-2.9 4.1-7.4 4.7-1.7.3-4.6.7-6.3 1-2.1.4-3.3.2-3.3-.5 0-.6-.9-1.1-2-1.1s-2 .6-2 1.4c0 1.6-2.2 2.6-5.3 2.5-1.2 0-1.6-.3-.9-.6.7-.3 1.8-1.6 2.3-3 .5-1.4 1.8-2.7 2.9-3 1.1-.3 2.1-1.3 2.1-2.2.1-.9.2-2.3.3-3.1.3-4.4 2.9-7.8 7.9-10.3 2.9-1.4 6.8-4.2 8.6-6.1 3.5-3.6 6-4.3 11-2.9zM287 814.4c0 .3-.4.8-1 1.1-.5.3-1 .1-1-.4 0-.6.5-1.1 1-1.1.6 0 1 .2 1 .4zm128.5 6.2c0 1.9-.6 3-1.7 3.2-1.9.4-2.4-2.1-1.2-5.3 1-2.5 2.9-1.2 2.9 2.1zm-42.1 2.4c-1.4 1.4-3.9-1.4-2.9-3.1.5-.8 1.2-.6 2.3.5 1.1 1.1 1.3 1.9.6 2.6zm-12.9-2c.3.5.1 1-.4 1-.6 0-1.1-.5-1.1-1 0-.6.2-1 .4-1 .3 0 .8.4 1.1 1zm-12.8 3c.3 1.1.9 2 1.4 2 1.4 0 1 3-.6 4.6-.9.9-2.3 1.3-3.5.9-1.6-.5-2.3.2-4.1 3.9-2.4 5.2-3.6 5.7-4.5 2.1-.8-3.3.3-7.5 2-7.5 2.2 0 4.6-2.9 4.6-5.6 0-3.1 3.9-3.4 4.7-.4zm-17.7 1.9c0 1.2-2 2.5-2.7 1.8-.7-.7.6-2.7 1.8-2.7.5 0 .9.4.9.9zm61.8 5.9c.3 1.6-.1 2-1.2 1.6-1.9-.7-2.2-4.8-.3-4.2.6.3 1.3 1.4 1.5 2.6zm-8.8 7.1c0 2.6-1 5.1-2.1 5.1-1 0-1.2-5.3-.2-6.3 1.2-1.3 2.3-.7 2.3 1.2zm-8 5.1c0 2.8-2.7 9-3.8 9-2.6 0-2.3-4.3.6-8.8 1.8-2.7 3.2-2.8 3.2-.2z"/><path d="M314 189.9c-.6 1.3-.6 2.2-.1 2.6.9.5 3.1-2.4 3.1-3.9 0-1.4-2-.4-3 1.3zM319.5 197.1c-.4.6-.5 1.2-.2 1.5.2.3.7-.2 1-1.1.7-1.7.1-2-.8-.4zM308.6 201.6c-.3.9-.6 2.5-.6 3.7l.1 2.2 1.9-2.3c1-1.3 1.6-3 1.3-3.7-.7-2-1.9-1.9-2.7.1zM302.6 201.9c-.4.7-.5 1.5-.2 1.8.9.9 1.9-.4 1.4-1.8-.4-1.1-.6-1.1-1.2 0zM294.6 207.6c-.8 2.1-.8 2.4.3 2.4 1.2 0 2.2-2.8 1.2-3.5-.5-.3-1.2.2-1.5 1.1zM296.5 211.7c-1.6.3-2.1 1.2-2.1 3.6 0 2.1-.8 4.1-2.3 5.6-2.4 2.4-2.2 4.2.3 2.2 1.2-1 1.7-.8 2.6.9.6 1.1.8 2.5.5 3-.3.6-.2 1 .4 1 .6 0 1.4-.8 2-1.8 1.3-2.4 2.5-15.2 1.5-15.1-.5.1-1.8.4-2.9.6zM282 259.4c0 .9.5 1.6 1 1.6.6 0 1-.4 1-.9 0-.6-.4-1.3-1-1.6-.5-.3-1 .1-1 .9zM576 264c0 1.3 3 1.3 5 0 1.1-.7.7-1-1.7-1-1.8 0-3.3.4-3.3 1zM583.7 264.6c-.9.9 8.1 5.4 19.8 9.8 5.5 2.1 14.7 5.8 20.5 8.2 5.8 2.4 11.9 4.8 13.5 5.4 2.9 1 2.9.9-1-2.4-2.2-1.9-5.1-3.8-6.5-4.1-1.4-.4-4.9-1.7-7.8-3.1-2.9-1.3-5.8-2.4-6.5-2.4-.7 0-2.3-.9-3.7-2-1.4-1.1-3.3-2-4.3-2-.9 0-3.6-.9-6-1.9-5.9-2.7-10.6-4.1-13.3-4.1-1.3 0-2.4-.5-2.4-1 0-1.1-1.3-1.3-2.3-.4zM558.4 282.1c-.3.5.6.9 2 .9 3.1 0 3.4-.6.6-1.3-1.1-.3-2.3-.1-2.6.4zM568.6 287.5c1.5 1.3 4.1 2.7 5.7 3.1 1.6.3 4.4 1.4 6.1 2.4 6.6 3.8 41.6 16.8 58.6 21.9 5.8 1.7 11.9 3.6 13.6 4.1 7.3 2.3 5.1.5-6-5-6.6-3.3-12.7-6.7-13.5-7.4-.9-.8-2.9-1.8-4.5-2.2-1.6-.4-4.1-1.3-5.5-2-1.4-.8-3.6-1.4-4.9-1.4-1.3 0-4.9-1.3-8.2-2.9-3.2-1.6-7.2-3.2-8.9-3.6-1.7-.3-3.3-1.1-3.6-1.6-.4-.5-1.5-.9-2.6-.9-1 0-3.6-.9-5.6-2-2.1-1.1-5.1-2-6.8-2-1.6 0-3.9-.7-4.9-1.5-1.1-.9-4.1-1.5-6.9-1.5h-5l2.9 2.5zM405 288.5c0 1.8 1.9 4 2.6 3.2.4-.4 0-1.5-.9-2.4-.9-1-1.7-1.3-1.7-.8zM419.6 289.9c-.8 1.2 2.3 2.3 4.5 1.6 1.2-.4 1.9-.1 1.9.7 0 .8 1.3 2.4 2.9 3.6 1.6 1.2 3.8 3.5 4.7 5.2 1 1.6 2.3 3 3 3 .6 0 1.9.9 2.9 2s2.3 2 2.9 1.9c2.6-.3 3.6.2 3.6 1.8 0 1 .4 1.4.8.8.4-.6 1.4-1.6 2.3-2.3 1.4-1.1 1.9-.8 3.3 2.3 1.8 3.7 4.2 4.6 5.3 1.9.8-2.2-15-17.4-18-17.4-1.2 0-3.5-.7-5-1.5-2.7-1.4-12.2-4.5-13.8-4.5-.4 0-1 .4-1.3.9zM374 340.4c0 1 2.8 1.3 4.1.5 1-.6.7-.9-1.3-.9-1.6 0-2.8.2-2.8.4zM584.2 366c0 1.4.2 1.9.5 1.2.2-.6.2-1.8 0-2.5-.3-.6-.5-.1-.5 1.3zM235.3 318.9c-3.1 2-4.2 4.1-6.8 13.4-1.9 6.7-1.3 8.3 1.8 4.6 1.2-1.4 4.3-5.2 7-8.4 5-6.1 5.8-8.8 2.9-10.4-1.4-.7-2.7-.5-4.9.8zM257.3 338.3c-.7 1.4-2.4 6.1-3.8 10.3-1.4 4.3-3.6 9-4.9 10.5-1.4 1.6-2.6 4.8-3 7.6-.4 2.6-1 5.8-1.3 7-1.5 6.4 5.5-.7 9.2-9.2 6.6-15.2 7.3-18.4 5.6-25.9l-.6-3-1.2 2.7zM229 369.4c-1.2 1.6-.9 9.2.6 13.1 1.6 4 7.3-1.2 9.4-8.6 1.2-4 .7-4.5-4.6-5.4-3.1-.5-4.4-.2-5.4.9zM226.2 452.5c-1.4 3.1-1.5 4.5-.4 4.5.9 0 3.2-4.4 3.2-6 0-1.9-1.7-1-2.8 1.5zM502.6 539.2c-1.2 8-1.5 12.8-.8 12.8 1.3 0 3.2-6.4 3.2-10.8 0-5-1.7-6.5-2.4-2zM380.4 586.3c-5.6 6.4-5.7 6.5-4.9 12.5.6 5.2.8 5.5 2.1 3.7.8-1 1.4-3.7 1.4-6 0-3.1.6-4.7 2.5-6.5 2.5-2.4 3.2-4.5 1.7-5.4-.5-.3-1.7.5-2.8 1.7zM390.7 588.7c-.4.3-.7 1.1-.7 1.7 0 .6.5.5 1.2-.2.6-.6.9-1.4.7-1.7-.3-.3-.9-.2-1.2.2zM388.7 595.4c-1 2.1-1.7 4.4-1.7 5.1 0 .8-.8 1.1-2 .8-1.5-.4-1.8-1.1-1.4-2.9.4-1.5.2-2.4-.5-2.4-1.6 0-3.1 4.3-2 5.4.5.6.9 1.9.9 2.9s.9 2.1 2 2.4c1.1.3 2 1 2 1.5 0 2.2 5.7-2.7 7.4-6.5 1.1-2.3 2.2-4.6 2.4-5.1.3-.5-.1-.5-.8-.1-1 .6-1.2.4-.7-.8.7-2-.8-2.3-1.9-.5-.6.9-1 .5-1.4-1.2-.6-2.4-.7-2.3-2.3 1.4zM407.7 594.7c-1.2 1.1-.8 2.5.5 1.7.8-.5.9 0 .4 1.7-.4 1.3-1 3.7-1.3 5.4-.6 3.1-2.9 6.5-4.6 6.5-.5 0-.7-.7-.4-1.4.4-1 .1-1.3-.9-.9-.8.3-1.4 1.9-1.4 4.1 0 3.3.1 3.5 1.6 2 2.3-2.3 6.4-.2 6.4 3.3 0 2.6 2.1 4.4 4.8 4 .6-.1 1.2.3 1.2.9 0 .6 1.1 1.5 2.5 2s2.5 1.6 2.5 2.5c0 1.6 1.8 2 3.6.7.6-.4 2.1-2.3 3.4-4.2l2.2-3.5-.5 3.7c-.6 4.3.1 4.7 2.9 1.7 1.4-1.6 1.9-3.8 2-10.4.1-4.7-.3-8.2-.7-7.9-.5.3-.9 2.4-1 4.7 0 2.3-.4 5.1-.8 6.1-1.6 4.1-2-2.6-.6-8.8.8-3.4 1.5-6.7 1.5-7.4 0-1.5-6.6-4.5-8-3.7-.6.4-1 .1-1-.4 0-2.1-2.3-1-6.1 2.8-3.9 3.8-3.9 3.8-4.4 1.5-.3-1.3-.7-3.5-1-4.9-.5-2.5-1.5-3.1-2.8-1.8zm11.6 9.8c-.3.9-.8 1.4-1 1.1-.3-.3-.2-.9.2-1.5.9-1.6 1.5-1.3.8.4zM435.6 595c-1.4.4-1.6.9-.8 1.4.7.4 1.2.4 1.2-.1 0-.4.4-.2.9.6.5.7 1.3 1.2 1.9 1 .7-.3.7-.9-.1-2-.8-1-1.9-1.4-3.1-.9zM401 597.7c0 .5-1.1 1.5-2.5 2.1-1.4.6-2.5 1.9-2.5 2.8 0 1.3.3 1.4 1.5.4.8-.6 1.9-.9 2.4-.5 1.1.6 2.7-4.2 1.7-5.2-.3-.4-.6-.2-.6.4zM448.6 608.2c-.4 1-1.6 2-2.6 2.3-1.4.4-1.9 2.1-2.5 7-.5 4.6-1.1 6.5-2.1 6.5-.9 0-1.4 1.1-1.4 2.9 0 1.6-.3 3.6-.6 4.5-1 2.6 2.2 1.9 4.5-1.1 2.9-3.6 6.3-15.3 5.9-19.9-.3-2.9-.6-3.5-1.2-2.2zM413.2 657c0 1.4.2 1.9.5 1.2.2-.6.2-1.8 0-2.5-.3-.6-.5-.1-.5 1.3zM315.7 354.2c-1.4 1.8-3.4 5.4-4.5 7.9-2.8 6.5-7.2 24.4-7.2 29.2v4l3.9-7.4c2.7-5.3 4-9.1 4.4-13.4.5-6.3 2.3-11.5 4-11.5.6 0 1.9.7 2.9 1.6 1.4 1.4 1.9 1.4 2.3.3.8-2.3-.9-13.2-2.2-13.6-.6-.2-2.3 1.1-3.6 2.9zM363 366c-1.9 1.1-4.5 1.9-5.7 2-1.2 0-2.8.9-3.6 2-1.2 1.8-5.6 4-7.8 4-1.1 0-.1-5 1.2-6.5 1.2-1.2 1.1-2.5 0-2.5-.5 0-2.8 2.3-5 5.1-3.4 4.3-4.1 5.9-4.1 9.5 0 4.8.1 5 3.1 3.1 1.7-1 2.2-.9 3 .5.6 1 1.7 1.8 2.5 1.8 2.7 0 7.2-2.9 7.9-5.1 1.7-5.2 8.2-10.4 17-13.4l2-.7-2-.8c-3-1.3-4.7-1.1-8.5 1zM444.7 444.2c-.4 1.2-.4 2.4-.2 2.6.7.8 3.5-2 3.5-3.4 0-2.3-2.7-1.6-3.3.8zM441 448c0 .6.4.9.9.6.5-.4 1.2-.1 1.4.4.3.6.4.5.3-.2-.3-1.5-2.6-2.3-2.6-.8zM537 455.1c-.9 1.5-.8 2.4.1 3.5 1.5 1.8 2.9.2 2.9-3.4 0-2.8-1.6-2.9-3-.1zM676.4 470.1c-3.1 6.1-3.5 8.8-1.3 10 2.2 1.1 1.9 4-.9 7.1-1.7 2.1-3.2 1.5-3.2-1.3 0-3-1.9-2.2-3.7 1.7-1.2 2.5-1.4 4-.7 5.1 1.3 2.1-3.1 16.4-9.2 29.3-2.4 5.2-4.4 10.3-4.4 11.2 0 4.1 6.9 1 13.1-6 8.8-9.7 19.9-35.6 21.5-49.8.6-5.8.5-6.3-1.7-7.7-1.3-.9-3.6-1.9-5.1-2.2-2.3-.6-2.9-.2-4.4 2.6zM744.4 497.4c-3.1 1.4-6.4 5-6.4 7.1 0 .6 1.3 1.6 3 2.2 3.9 1.5 4.6 3.7 5.5 16.5.5 7.8 1.1 10.5 2 10.2.6-.3 2.8-4 4.8-8.2 3.2-6.8 4.7-10.7 8.9-22.9 1.9-5.4.8-6.3-7.4-6.3-4 .1-8.7.7-10.4 1.4zM721.7 510c-1.2 3.4-1.5 6-.6 6 1.1 0 2.3-4.5 1.6-6.2-.3-1-.6-.9-1 .2zM719 522.7c-.6 1.6-1.5 3.6-2 4.5-1.5 2.6-1.2 5.8.5 5.8 4.1 0 3.7 6.3-1.2 19.8-.9 2.3-1.3 4.5-1 4.8 1.3 1.3 7-1 11.6-4.6 5.3-4.2 7.1-8 7.4-15.3.2-4.1-.1-4.6-6.8-11-3.8-3.7-7.1-6.7-7.3-6.7-.1 0-.7 1.2-1.2 2.7zM705.5 555.6c-.3 2-.4 3.9-.1 4.2.9.8 1.3 0 1.9-4.1.7-4.8-.9-4.9-1.8-.1zM709.3 559.7c-1.4.5-1.8 3.3-.5 3.3 1 0 3.2-2.2 3.2-3.2 0-.9-.8-.9-2.7-.1zM592.6 629.9c-.7 1.1.3 4.1 1.4 4.1 1.1 0 2.1-3 1.4-4.1-.3-.5-.9-.9-1.4-.9-.5 0-1.1.4-1.4.9zM602.6 645.7c-.4 1.3-1.2 2.3-1.7 2.3s-.9.7-.9 1.5c0 1.2.5 1 2.1-.6 1.1-1.1 1.9-2.8 1.7-3.7-.3-1.4-.6-1.3-1.2.5zM353.7 751.8c-1.7 1.9-2.2 4.8-1.1 7.6.9 2.4 1.7 2 3.8-1.8 2.9-5.4.9-9.8-2.7-5.8zM340.2 791.6c.2 1.1 1.1 2 2.2 2.2 1.3.3 1.7-.1 1.4-1.4-.2-1.1-1.1-2-2.2-2.2-1.3-.3-1.7.1-1.4 1.4zM335 805.7c0 .6-.3 1.8-.6 2.7-.3.9-.2 1.6.4 1.6 1.5 0 2.4-3.2 1.2-4.4-.7-.7-1-.7-1 .1z"/></svg>